<?xml version="1.0" standalone="no"?>
<!DOCTYPE svg PUBLIC "-//W3C//DTD SVG 20010904//EN" "http://www.w3.org/TR/2001/REC-SVG-20010904/DTD/svg10.dtd">
<!-- Created using Krita: https://krita.org -->
<svg xmlns="http://www.w3.org/2000/svg" 
    xmlns:xlink="http://www.w3.org/1999/xlink"
    xmlns:krita="http://krita.org/namespaces/svg/krita"
    xmlns:sodipodi="http://sodipodi.sourceforge.net/DTD/sodipodi-0.dtd"
    width="737.28pt"
    height="737.28pt"
    viewBox="0 0 737.28 737.28">
<defs/>
<circle id="shape0" transform="matrix(1.30623941809136 0 0 1.30623941809136 18.2105472855618 10.6618275670432)" r="273.599967754104" cx="273.599967754104" cy="273.599967754104" fill="#2d2a2a" fill-rule="evenodd" stroke="#000000" stroke-opacity="0" stroke-width="0" stroke-linecap="square" stroke-linejoin="bevel"/><path id="shape01" transform="matrix(1.88320006646517 -0.19751684516446 0.19751684516446 1.88320006646517 132.849674004253 67.0022814696847)" fill="#03a678" fill-rule="evenodd" stroke="#000000" stroke-opacity="0" stroke-width="0" stroke-linecap="butt" stroke-linejoin="miter" stroke-miterlimit="2" d="M296.726 3.211L295.587 2.994L294.225 2.749L292.646 2.483L290.854 2.202L288.854 1.914L286.653 1.624L284.254 1.339L281.665 1.065L278.889 0.809L275.933 0.577L272.801 0.375L269.5 0.21L266.033 0.088L262.407 0.016L258.627 0L254.698 0.047L250.625 0.162L246.414 0.352L242.07 0.624L237.599 0.984L233.005 1.439L228.295 1.995L223.472 2.657L218.544 3.434L213.514 4.33L208.388 5.353L203.173 6.509L199.834 7.324L278.379 98.429L279.32 96.219L281.307 91.26L283.147 86.369L284.848 81.552L286.413 76.814L287.85 72.164L289.162 67.606L290.356 63.147L291.436 58.794L292.409 54.552L293.28 50.428L294.055 46.428L294.738 42.559L295.335 38.826L295.852 35.237L296.294 31.796L296.667 28.512L296.976 25.389L297.227 22.434L297.424 19.654L297.574 17.054L297.682 14.642L297.753 12.423L297.793 10.403L297.807 8.589L297.801 6.987L297.78 5.604L297.75 4.445L296.726 3.211M193.169 9.063L192.491 9.244L187.036 10.837L181.511 12.588L175.923 14.505L170.276 16.592L164.576 18.857L158.828 21.306L153.038 23.946L147.21 26.783L141.35 29.823L135.463 33.072L129.556 36.538L123.632 40.226L117.697 44.143L111.757 48.296L105.817 52.69L99.882 57.332L93.958 62.229L88.049 67.387L82.162 72.812L76.301 78.511L70.471 84.49L64.679 90.756L58.929 97.314L53.227 104.172L47.578 111.336L41.988 118.812L36.461 126.606L31.003 134.725L25.619 143.176L20.315 151.964L16.759 158.185L100.383 255.18L106.128 253.043L115.66 249.235L124.872 245.294L133.77 241.226L142.357 237.037L150.641 232.734L158.626 228.322L166.318 223.809L173.723 219.2L180.845 214.501L187.69 209.72L194.265 204.862L200.573 199.933L206.621 194.94L212.414 189.889L217.958 184.786L223.257 179.638L228.318 174.451L233.146 169.231L237.747 163.984L242.125 158.717L246.286 153.436L250.237 148.148L253.981 142.858L257.525 137.572L260.874 132.298L264.034 127.042L267.01 121.809L269.807 116.606L272.431 111.439L274.888 106.315L275.619 104.697L193.169 9.063M13.557 163.94L9.966 170.58L4.933 180.42L0 190.624L64.447 266.536L64.684 266.815L75.553 263.603L86.08 260.233L94.166 257.438L13.557 163.94"/><path id="shape1" transform="matrix(1.88320006646517 -0.19751684516446 0.19751684516446 1.88320006646517 155.100332151698 318.249266406598)" fill="#038c72" fill-rule="evenodd" stroke="#000000" stroke-opacity="0" stroke-width="0" stroke-linecap="square" stroke-linejoin="bevel" d="M67.68 134.954L68.318 134.744L69.133 134.485L70.123 134.177L71.281 133.819L72.604 133.41L74.085 132.95L75.72 132.438L77.505 131.873L79.434 131.254L81.503 130.581L83.706 129.853L86.039 129.069L88.498 128.229L91.076 127.331L93.769 126.376L96.573 125.362L97.2 125.131L48.081 68.158L45.656 67.813L42.014 67.238L38.502 66.628L35.123 65.989L31.879 65.327L28.773 64.647L25.81 63.955L22.99 63.257L20.319 62.558L17.798 61.863L15.431 61.179L13.22 60.51L11.169 59.863L9.281 59.243L7.558 58.656L6.004 58.106L4.621 57.601L3.413 57.144L2.383 56.743L1.533 56.402L0.867 56.127L0.387 55.923L0.097 55.797L0 55.754L67.68 134.954M103.37 122.818L105.598 121.962L108.794 120.707L112.077 119.39L115.441 118.009L118.881 116.566L122.392 115.058L125.97 113.484L129.61 111.846L133.306 110.141L137.054 108.368L140.85 106.528L144.688 104.62L148.563 102.642L152.47 100.594L156.405 98.475L160.363 96.285L164.339 94.023L168.328 91.688L172.325 89.28L176.325 86.797L180.323 84.239L184.316 81.606L188.297 78.896L192.261 76.11L196.205 73.245L200.122 70.302L204.009 67.279L207.861 64.177L211.671 60.994L215.437 57.73L219.152 54.383L222.812 50.954L226.412 47.441L229.947 43.844L233.412 40.162L236.803 36.395L240.114 32.541L243.341 28.599L246.479 24.571L249.523 20.453L252.467 16.247L255.308 11.95L258.041 7.563L260.66 3.085L261.972 0.686L261.401 0L256.794 3.893L250.438 9.015L244.094 13.884L237.767 18.507L231.457 22.889L225.169 27.036L218.906 30.953L212.671 34.645L206.466 38.119L200.294 41.38L194.159 44.433L188.064 47.284L182.011 49.939L176.004 52.403L170.046 54.683L164.139 56.782L158.287 58.708L152.492 60.465L146.758 62.059L141.088 63.496L135.484 64.782L129.95 65.921L124.488 66.92L119.102 67.784L113.795 68.518L108.569 69.129L103.428 69.622L98.374 70.002L93.411 70.275L88.542 70.446L83.769 70.522L79.096 70.508L74.525 70.409L70.06 70.231L65.704 69.979L61.459 69.659L57.329 69.277L57.198 69.263L103.37 122.818"/><path id="path3211" transform="matrix(0.763532786016133 0.729187890314017 -0.729187890314017 0.763532786016133 465.257302603578 465.45723652441)" fill="#038c72" fill-rule="evenodd" stroke="#000000" stroke-opacity="0" stroke-width="0" stroke-linecap="butt" stroke-linejoin="miter" stroke-miterlimit="2" d="M20.2031 0.000125701C20.2031 0.000125701 127.279 -1.33346 62.6295 270.721C62.6295 270.721 56.5685 43.5611 0 71.5667"/><path id="path3215" transform="matrix(0.763532786016133 0.729187890314017 -0.729187890314017 0.763532786016133 185.521243407967 220.10668202866)" fill="#038c72" fill-rule="evenodd" stroke="#000000" stroke-opacity="0" stroke-width="0" stroke-linecap="butt" stroke-linejoin="miter" stroke-miterlimit="2" d="M63.1752 0.000125701C63.1752 0.000125701 -43.901 -1.33346 20.7488 270.721C20.7488 270.721 26.8097 43.5611 83.3782 71.5667"/><path id="shape11" transform="matrix(1.88979728000115 -0.118834099135974 0.118834099135974 1.88979728000115 134.97361941255 467.895309279813)" fill="#025959" fill-rule="evenodd" stroke="#000000" stroke-opacity="0" stroke-width="0" stroke-linecap="square" stroke-linejoin="bevel" d="M31.8171 0L1.09714 16.7642L0 37.9988L19.7486 44.7045L49.3714 74.88L49.3714 74.88L61.44 58.1158L69.12 40.234Z"/><path id="shape2" transform="matrix(1.88979728000115 -0.118834099135974 0.118834099135974 1.88979728000115 35.0623390225507 506.073652225937)" fill="#ff9c2c" fill-rule="evenodd" stroke="#000000" stroke-opacity="0" stroke-width="0" stroke-linecap="square" stroke-linejoin="bevel" d="M51.1883 0L51.1475 0.0252863L49.6193 1.00606L48.0958 2.01698L46.5779 3.05796L45.0661 4.12891L43.5612 5.22974L42.0638 6.36034L40.5747 7.52062L39.1033 8.70335L37.6589 9.90089L36.2417 11.1126L34.8521 12.3379L33.4902 13.576L32.1563 14.8265L30.8506 16.0885L29.5734 17.3615L28.325 18.6448L27.1055 19.9378L25.9153 21.2399L24.7546 22.5503L23.6236 23.8686L22.5225 25.1939L21.4517 26.5257L20.4114 27.8634L19.4018 29.2062L18.4231 30.5536L17.4757 31.9049L16.5598 33.2595L15.6755 34.6167L14.8232 35.9759L14.0031 37.3364L13.2155 38.6976L12.4606 40.0589L11.7386 41.4196L11.0499 42.7791L10.3946 44.1367L9.77295 45.4917L9.18528 46.8437L8.6318 48.1918L8.11276 49.5355L7.62841 50.8741L7.179 52.207L6.93423 52.9909L1.52735 70.1372L0 78.6649L8.14587 75.1011L28.8924 68.8644L6.23668 98.3932L12.8552 100.302L18.2009 101.957L24.4376 99.9206L29.6561 99.2842L32.3289 98.1386L34.8745 96.8659L36.911 96.6113L79.3959 83.5842L79.6174 83.4561L81.1532 82.536L82.6856 81.5854L84.2139 80.6047L85.7373 79.5937L87.2553 78.5528L88.767 77.4818L90.2719 76.381L91.7693 75.2504L93.2585 74.0901L94.7299 72.9074L96.1743 71.7098L97.5914 70.4981L98.9811 69.2728L100.343 68.0347L101.677 66.7843L102.66 65.8342L80.0619 39.6206L48.3819 26.6606L51.1883 0"/><circle id="shape01" transform="matrix(1.23838800902109 -0.129886620644862 0.129886620644862 1.23838800902109 364.242800902209 153.089137693347)" r="77.7600122580223" cx="77.7600122580223" cy="77.7600122580223" fill="#2d2a2a" fill-rule="evenodd" stroke="#000000" stroke-opacity="0" stroke-width="0" stroke-linecap="square" stroke-linejoin="bevel"/><circle id="shape011" transform="matrix(1.23838795916783 -0.129886615416071 0.129886615416071 1.23838795916783 379.246696155284 165.933976641682)" r="66.677088778812" cx="66.677088778812" cy="66.677088778812" fill="#f0f2f5" fill-rule="evenodd" stroke="#000000" stroke-opacity="0" stroke-width="0" stroke-linecap="square" stroke-linejoin="bevel"/>
</svg>
